{
  "accessors": [
    {
      "bufferView": 2,
      "componentType": 5126,
      "count": 2020,
      "max": [
        1.0000001192092896,
        1.0000004768371582,
        1.0000001192092896
      ],
      "min": [
        -1.000000238418579,
        -1.0,
        -1.0
      ],
      "type": "VEC3"
    },
    {
      "bufferView": 2,
      "byteOffset": 24240,
      "componentType": 5126,
      "count": 2020,
      "max": [
        1.0,
        1.0,
        1.0
      ],
      "min": [
        -1.0,
        -1.0,
        -1.0
      ],
      "type": "VEC3"
    },
    {
      "bufferView": 3,
      "componentType": 5126,
      "count": 2020,
      "max": [
        1.0,
        1.0,
        1.0,
        1.0
      ],
      "min": [
        -1.0,
        -1.0,
        -1.0,
        -1.0
      ],
      "type": "VEC4"
    },
    {
      "bufferView": 1,
      "componentType": 5126,
      "count": 2020,
      "max": [
        0.9837673306465149,
        0.9833633899688721
      ],
      "min": [
        0.007050490938127041,
        0.007050490938127041
      ],
      "type": "VEC2"
    },
    {
      "bufferView": 1,
      "byteOffset": 16160,
      "componentType": 5126,
      "count": 2020,
      "max": [
        0.9837673306465149,
        0.9833633899688721
      ],
      "min": [
        0.007050490938127041,
        0.007050490938127041
      ],
      "type": "VEC2"
    },
    {
      "bufferView": 1,
      "byteOffset": 32320,
      "componentType": 5126,
      "count": 2020,
      "max": [
        0.9837673306465149,
        0.9833633899688721
      ],
      "min": [
        0.007050490938127041,
        0.007050490938127041
      ],
      "type": "VEC2"
    },
    {
      "bufferView": 0,
      "componentType": 5125,
      "count": 3687,
      "type": "SCALAR"
    },
    {
      "bufferView": 2,
      "byteOffset": 48480,
      "componentType": 5126,
      "count": 2020,
      "max": [
        1.0000001192092896,
        1.0000004768371582,
        1.0000001192092896
      ],
      "min": [
        -1.000000238418579,
        -1.0,
        -1.0
      ],
      "type": "VEC3"
    },
    {
      "bufferView": 2,
      "byteOffset": 72720,
      "componentType": 5126,
      "count": 2020,
      "max": [
        1.0,
        1.0,
        1.0
      ],
      "min": [
        -1.0,
        -1.0,
        -1.0
      ],
      "type": "VEC3"
    },
    {
      "bufferView": 3,
      "byteOffset": 32320,
      "componentType": 5126,
      "count": 2020,
      "max": [
        1.0,
        1.0,
        1.0,
        1.0
      ],
      "min": [
        -1.0,
        -1.0,
        -1.0,
        -1.0
      ],
      "type": "VEC4"
    },
    {
      "bufferView": 1,
      "byteOffset": 48480,
      "componentType": 5126,
      "count": 2020,
      "max": [
        0.9837673306465149,
        0.9833633899688721
      ],
      "min": [
        0.007050490938127041,
        0.007050490938127041
      ],
      "type": "VEC2"
    },
    {
      "bufferView": 1,
      "byteOffset": 64640,
      "componentType": 5126,
      "count": 2020,
      "max": [
        0.9837673306465149,
        0.9833633899688721
      ],
      "min": [
        0.007050490938127041,
        0.007050490938127041
      ],
      "type": "VEC2"
    },
    {
      "bufferView": 1,
      "byteOffset": 80800,
      "componentType": 5126,
      "count": 2020,
      "max": [
        0.9837673306465149,
        0.9833633899688721
      ],
      "min": [
        0.007050490938127041,
        0.007050490938127041
      ],
      "type": "VEC2"
    },
    {
      "bufferView": 0,
      "byteOffset": 14748,
      "componentType": 5125,
      "count": 3687,
      "type": "SCALAR"
    },
    {
      "bufferView": 2,
      "byteOffset": 96960,
      "componentType": 5126,
      "count": 2020,
      "max": [
        1.0000001192092896,
        1.0000004768371582,
        1.0000001192092896
      ],
      "min": [
        -1.000000238418579,
        -1.0,
        -1.0
      ],
      "type": "VEC3"
    },
    {
      "bufferView": 2,
      "byteOffset": 121200,
      "componentType": 5126,
      "count": 2020,
      "max": [
        1.0,
        1.0,
        1.0
      ],
      "min": [
        -1.0,
        -1.0,
        -1.0
      ],
      "type": "VEC3"
    },
    {
      "bufferView": 3,
      "byteOffset": 64640,
      "componentType": 5126,
      "count": 2020,
      "max": [
        1.0,
        1.0,
        1.0,
        1.0
      ],
      "min": [
        -1.0,
        -1.0,
        -1.0,
        -1.0
      ],
      "type": "VEC4"
    },
    {
      "bufferView": 1,
      "byteOffset": 96960,
      "componentType": 5126,
      "count": 2020,
      "max": [
        0.9837673306465149,
        0.9833633899688721
      ],
      "min": [
        0.007050490938127041,
        0.007050490938127041
      ],
      "type": "VEC2"
    },
    {
      "bufferView": 1,
      "byteOffset": 113120,
      "componentType": 5126,
      "count": 2020,
      "max": [
        0.9837673306465149,
        0.9833633899688721
      ],
      "min": [
        0.007050490938127041,
        0.007050490938127041
      ],
      "type": "VEC2"
    },
    {
      "bufferView": 1,
      "byteOffset": 129280,
      "componentType": 5126,
      "count": 2020,
      "max": [
        0.9837673306465149,
        0.9833633899688721
      ],
      "min": [
        0.007050490938127041,
        0.007050490938127041
      ],
      "type": "VEC2"
    },
    {
      "bufferView": 0,
      "byteOffset": 29496,
      "componentType": 5125,
      "count": 3687,
      "type": "SCALAR"
    },
    {
      "bufferView": 2,
      "byteOffset": 145440,
      "componentType": 5126,
      "count": 2020,
      "max": [
        1.0000001192092896,
        1.0000004768371582,
        1.0000001192092896
      ],
      "min": [
        -1.000000238418579,
        -1.0,
        -1.0
      ],
      "type": "VEC3"
    },
    {
      "bufferView": 2,
      "byteOffset": 169680,
      "componentType": 5126,
      "count": 2020,
      "max": [
        1.0,
        1.0,
        1.0
      ],
      "min": [
        -1.0,
        -1.0,
        -1.0
      ],
      "type": "VEC3"
    },
    {
      "bufferView": 3,
      "byteOffset": 96960,
      "componentType": 5126,
      "count": 2020,
      "max": [
        1.0,
        1.0,
        1.0,
        1.0
      ],
      "min": [
        -1.0,
        -1.0,
        -1.0,
        -1.0
      ],
      "type": "VEC4"
    },
    {
      "bufferView": 1,
      "byteOffset": 145440,
      "componentType": 5126,
      "count": 2020,
      "max": [
        0.9837673306465149,
        0.9833633899688721
      ],
      "min": [
        0.007050490938127041,
        0.007050490938127041
      ],
      "type": "VEC2"
    },
    {
      "bufferView": 1,
      "byteOffset": 161600,
      "componentType": 5126,
      "count": 2020,
      "max": [
        0.9837673306465149,
        0.9833633899688721
      ],
      "min": [
        0.007050490938127041,
        0.007050490938127041
      ],
      "type": "VEC2"
    },
    {
      "bufferView": 1,
      "byteOffset": 177760,
      "componentType": 5126,
      "count": 2020,
      "max": [
        0.9837673306465149,
        0.9833633899688721
      ],
      "min": [
        0.007050490938127041,
        0.007050490938127041
      ],
      "type": "VEC2"
    },
    {
      "bufferView": 0,
      "byteOffset": 44244,
      "componentType": 5125,
      "count": 3687,
      "type": "SCALAR"
    }
  ],
  "asset": {
    "extras": {
      "author": "rogozhko (https://sketchfab.com/rogozhko)",
      "license": "CC-BY-4.0 (http://creativecommons.org/licenses/by/4.0/)",
      "source": "https://sketchfab.com/3d-models/dices-ac93361d354144fcbc9ea13c6bf9e11b",
      "title": "Dices"
    },
    "generator": "Sketchfab-12.67.0",
    "version": "2.0"
  },
  "bufferViews": [
    {
      "buffer": 0,
      "byteLength": 58992,
      "name": "floatBufferViews",
      "target": 34963
    },
    {
      "buffer": 0,
      "byteLength": 193920,
      "byteOffset": 58992,
      "byteStride": 8,
      "name": "floatBufferViews",
      "target": 34962
    },
    {
      "buffer": 0,
      "byteLength": 193920,
      "byteOffset": 252912,
      "byteStride": 12,
      "name": "floatBufferViews",
      "target": 34962
    },
    {
      "buffer": 0,
      "byteLength": 129280,
      "byteOffset": 446832,
      "byteStride": 16,
      "name": "floatBufferViews",
      "target": 34962
    }
  ],
  "buffers": [
    {
      "byteLength": 576112,
      "uri": "scene.bin"
    }
  ],
  "images": [
    {
      "uri": "textures/dice_01_baseColor.png"
    },
    {
      "uri": "textures/dice_01_metallicRoughness.png"
    },
    {
      "uri": "textures/dice_01_normal.png"
    },
    {
      "uri": "textures/dice_03_baseColor.png"
    },
    {
      "uri": "textures/dice_02_baseColor.png"
    },
    {
      "uri": "textures/dice_00_baseColor.png"
    }
  ],
  "materials": [
    {
      "doubleSided": true,
      "name": "dice_01",
      "normalTexture": {
        "index": 2
      },
      "occlusionTexture": {
        "index": 1
      },
      "pbrMetallicRoughness": {
        "baseColorTexture": {
          "index": 0
        },
        "metallicFactor": 0.0,
        "metallicRoughnessTexture": {
          "index": 1
        }
      }
    },
    {
      "doubleSided": true,
      "name": "dice_03",
      "normalTexture": {
        "index": 2
      },
      "occlusionTexture": {
        "index": 1
      },
      "pbrMetallicRoughness": {
        "baseColorTexture": {
          "index": 3
        },
        "metallicFactor": 0.0,
        "metallicRoughnessTexture": {
          "index": 1
        }
      }
    },
    {
      "doubleSided": true,
      "name": "dice_02",
      "normalTexture": {
        "index": 2
      },
      "occlusionTexture": {
        "index": 1
      },
      "pbrMetallicRoughness": {
        "baseColorTexture": {
          "index": 4
        },
        "metallicFactor": 0.0,
        "metallicRoughnessTexture": {
          "index": 1
        }
      }
    },
    {
      "doubleSided": true,
      "name": "dice_00",
      "normalTexture": {
        "index": 2
      },
      "occlusionTexture": {
        "index": 1
      },
      "pbrMetallicRoughness": {
        "baseColorTexture": {
          "index": 5
        },
        "metallicFactor": 0.0,
        "metallicRoughnessTexture": {
          "index": 1
        }
      }
    }
  ],
  "meshes": [
    {
      "name": "dice_01_dice_01_0",
      "primitives": [
        {
          "attributes": {
            "NORMAL": 1,
            "POSITION": 0,
            "TANGENT": 2,
            "TEXCOORD_0": 3,
            "TEXCOORD_1": 4,
            "TEXCOORD_2": 5
          },
          "indices": 6,
          "material": 0,
          "mode": 4
        }
      ]
    },
    {
      "name": "dice_00_dice_03_0",
      "primitives": [
        {
          "attributes": {
            "NORMAL": 8,
            "POSITION": 7,
            "TANGENT": 9,
            "TEXCOORD_0": 10,
            "TEXCOORD_1": 11,
            "TEXCOORD_2": 12
          },
          "indices": 13,
          "material": 1,
          "mode": 4
        }
      ]
    },
    {
      "name": "dice_02_dice_02_0",
      "primitives": [
        {
          "attributes": {
            "NORMAL": 15,
            "POSITION": 14,
            "TANGENT": 16,
            "TEXCOORD_0": 17,
            "TEXCOORD_1": 18,
            "TEXCOORD_2": 19
          },
          "indices": 20,
          "material": 2,
          "mode": 4
        }
      ]
    },
    {
      "name": "dice_03_dice_00_0",
      "primitives": [
        {
          "attributes": {
            "NORMAL": 22,
            "POSITION": 21,
            "TANGENT": 23,
            "TEXCOORD_0": 24,
            "TEXCOORD_1": 25,
            "TEXCOORD_2": 26
          },
          "indices": 27,
          "material": 3,
          "mode": 4
        }
      ]
    }
  ],
  "nodes": [
    {
      "children": [
        1
      ],
      "matrix": [
        1.0,
        0.0,
        0.0,
        0.0,
        0.0,
        2.220446049250313e-16,
        -1.0,
        0.0,
        0.0,
        1.0,
        2.220446049250313e-16,
        0.0,
        -0.025110812857747078,
        -0.02855830639600753,
        -0.030138978734612472,
        1.0
      ],
      "name": "Sketchfab_model"
    },
    {
      "children": [
        2
      ],
      "matrix": [
        0.009999999776482582,
        0.0,
        0.0,
        0.0,
        0.0,
        0.0,
        0.009999999776482582,
        0.0,
        0.0,
        -0.009999999776482582,
        0.0,
        0.0,
        0.0,
        0.0,
        0.0,
        1.0
      ],
      "name": "f0613120488a43ad9bd6376ce5d89d0e.fbx"
    },
    {
      "children": [
        3,
        5,
        7,
        9
      ],
      "name": "RootNode"
    },
    {
      "children": [
        4
      ],
      "matrix": [
        -31.627030797671107,
        -90.05838196349664,
        -29.819771310996106,
        0.0,
        -20.321723526117246,
        -24.272090805620376,
        94.85723318087419,
        0.0,
        -92.66476427890919,
        36.06041508268349,
        -10.624872949770747,
        0.0,
        0.0,
        0.0,
        154.35235595703125,
        1.0
      ],
      "name": "dice_01"
    },
    {
      "mesh": 0,
      "name": "dice_01_dice_01_0"
    },
    {
      "children": [
        6
      ],
      "matrix": [
        15.534669441502125,
        -96.26566503432106,
        22.171959337035496,
        0.0,
        16.793514564778114,
        -19.54423685123868,
        -96.62297422759464,
        0.0,
        97.34809639059553,
        18.733512300619914,
        13.130256890474158,
        0.0,
        396.9934997558594,
        0.0,
        69.09506225585938,
        1.0
      ],
      "name": "dice_00"
    },
    {
      "mesh": 1,
      "name": "dice_00_dice_03_0"
    },
    {
      "children": [
        8
      ],
      "matrix": [
        -4.371138984105016e-06,
        -99.99999999999973,
        5.960463766996327e-06,
        0.0,
        -1.6292068227841128e-05,
        -5.960463056453591e-06,
        -99.9999999999985,
        0.0,
        99.99999999999858,
        -4.371139955550163e-06,
        -1.6292067961387602e-05,
        0.0,
        -247.378662109375,
        21.359142303466797,
        -428.1409606933594,
        1.0
      ],
      "name": "dice_02"
    },
    {
      "mesh": 2,
      "name": "dice_02_dice_02_0"
    },
    {
      "children": [
        10
      ],
      "matrix": [
        -10.32623399193573,
        71.64783205922413,
        -68.99244199734494,
        0.0,
        86.38521583738604,
        40.84333292020625,
        29.485871882944593,
        0.0,
        49.304800742645924,
        -56.55448980569457,
        -66.11071249461446,
        0.0,
        75.89857482910156,
        109.00775146484375,
        -258.0656433105469,
        1.0
      ],
      "name": "dice_03"
    },
    {
      "mesh": 3,
      "name": "dice_03_dice_00_0"
    }
  ],
  "samplers": [
    {
      "magFilter": 9729,
      "minFilter": 9987,
      "wrapS": 10497,
      "wrapT": 10497
    }
  ],
  "scene": 0,
  "scenes": [
    {
      "name": "Sketchfab_Scene",
      "nodes": [
        0
      ]
    }
  ],
  "textures": [
    {
      "sampler": 0,
      "source": 0
    },
    {
      "sampler": 0,
      "source": 1
    },
    {
      "sampler": 0,
      "source": 2
    },
    {
      "sampler": 0,
      "source": 3
    },
    {
      "sampler": 0,
      "source": 4
    },
    {
      "sampler": 0,
      "source": 5
    }
  ]
}
